<svg xmlns="http://www.w3.org/2000/svg" viewBox="0 0 512 512" role="img" aria-labelledby="title desc">
  <title id="title">Cara de Abelha</title>
  <desc id="desc">Icone do app com um hexagono dourado e uma abelha estilizada.</desc>
  <defs>
    <linearGradient id="sky" x1="0" y1="0" x2="1" y2="1">
      <stop offset="0%" stop-color="#fff3b0" />
      <stop offset="52%" stop-color="#f6b73c" />
      <stop offset="100%" stop-color="#d47d16" />
    </linearGradient>
    <linearGradient id="ink" x1="0" y1="0" x2="1" y2="1">
      <stop offset="0%" stop-color="#3b2209" />
      <stop offset="100%" stop-color="#1d1208" />
    </linearGradient>
  </defs>
  <rect width="512" height="512" rx="132" fill="#120b05" />
  <path
    d="M256 76 391 154v156L256 388 121 310V154L256 76Z"
    fill="url(#sky)"
    stroke="#fff0b0"
    stroke-width="18"
    stroke-linejoin="round"
  />
  <path
    d="M196 238c0-46 27-81 60-81s60 35 60 81c0 44-27 78-60 78s-60-34-60-78Z"
    fill="#1d1208"
  />
  <path d="M221 186h70v126h-70Z" fill="#f6b73c" />
  <path d="M212 206h88v24h-88Z" fill="#1d1208" />
  <path d="M212 258h88v24h-88Z" fill="#1d1208" />
  <path
    d="M182 188c-25-18-56-12-77 16 30 4 56 18 73 39 9-18 11-38 4-55Z"
    fill="#d5f5ff"
    opacity="0.95"
  />
  <path
    d="M330 188c25-18 56-12 77 16-30 4-56 18-73 39-9-18-11-38-4-55Z"
    fill="#d5f5ff"
    opacity="0.95"
  />
  <path d="M235 151c4-26 16-44 21-51 5 7 17 25 21 51" fill="none" stroke="url(#ink)" stroke-width="16" stroke-linecap="round" />
  <circle cx="214" cy="131" r="16" fill="#1d1208" />
  <circle cx="298" cy="131" r="16" fill="#1d1208" />
  <path d="M225 336c18 14 45 14 63 0" fill="none" stroke="#fff4d4" stroke-width="16" stroke-linecap="round" />
</svg>